<svg xmlns="http://www.w3.org/2000/svg" viewBox="0 0 1280 320" font-family="'DejaVu Sans','Segoe UI',Arial,sans-serif">
<defs><linearGradient id="band" x1="0" y1="0" x2="1" y2="1"><stop offset="0" stop-color="#4f46e5"/><stop offset="1" stop-color="#3730a3"/></linearGradient></defs>
<rect x="2" y="2" width="1276" height="316" rx="20" fill="#ffffff" stroke="#e2e8f0" stroke-width="2"/>
<clipPath id="lc"><rect x="2" y="2" width="300" height="316" rx="20"/></clipPath>
<g clip-path="url(#lc)"><rect x="2" y="2" width="320" height="316" fill="url(#band)"/></g>
<g><line x1="152.0" y1="78.0" x2="109.7" y2="152.5" stroke="#fff" stroke-width="4.6" stroke-linecap="round"/><line x1="109.7" y1="152.5" x2="194.3" y2="152.5" stroke="#fff" stroke-width="4.6" stroke-linecap="round"/><line x1="194.3" y1="152.5" x2="152.0" y2="78.0" stroke="#fff" stroke-width="4.6" stroke-linecap="round"/><circle cx="152.0" cy="78.0" r="10.1" fill="#fff"/><circle cx="109.7" cy="152.5" r="10.1" fill="#fff"/><circle cx="194.3" cy="152.5" r="10.1" fill="#fff"/><circle cx="152.0" cy="124" r="7.4" fill="#fff"/><line x1="152.0" y1="124" x2="152.0" y2="78.0" stroke="#fff" stroke-width="3.2" opacity="0.55"/><line x1="152.0" y1="124" x2="109.7" y2="152.5" stroke="#fff" stroke-width="3.2" opacity="0.55"/><line x1="152.0" y1="124" x2="194.3" y2="152.5" stroke="#fff" stroke-width="3.2" opacity="0.55"/></g>
<text x="152.0" y="230" font-size="20" font-weight="800" fill="#ffffff" text-anchor="middle" letter-spacing="1">NETWORK SECURITY</text>
<text x="152.0" y="258" font-size="13" fill="#ffffff" opacity="0.8" text-anchor="middle" font-family="'DejaVu Sans Mono','Consolas',monospace">Wazuh SOC · detection eng.</text>
<text x="346" y="74" font-size="15" fill="#94a3b8" font-family="'DejaVu Sans Mono','Consolas',monospace">integrations / network-security / ufw</text>
<text x="346" y="142" font-size="44" font-weight="800" fill="#0f172a">UFW</text>
<text x="346" y="180" font-size="18" fill="#475569">Host firewall log analytics</text>
<rect x="346" y="194" width="64" height="4" rx="2" fill="#4f46e5"/>
<rect x="346" y="216" width="205" height="34" rx="17" fill="#f8fafc" stroke="#e2e8f0" stroke-width="1.4"/>
<circle cx="363" cy="233" r="4" fill="#4f46e5"/>
<text x="376" y="238" font-size="14" fill="#475569" font-weight="600">Rules 100100–100108</text>
<rect x="563" y="216" width="205" height="34" rx="17" fill="#f8fafc" stroke="#e2e8f0" stroke-width="1.4"/>
<circle cx="580" cy="233" r="4" fill="#4f46e5"/>
<text x="593" y="238" font-size="14" fill="#475569" font-weight="600">MITRE T1046 · T1110</text>
<rect x="780" y="216" width="119" height="34" rx="17" fill="#f8fafc" stroke="#e2e8f0" stroke-width="1.4"/>
<circle cx="797" cy="233" r="4" fill="#4f46e5"/>
<text x="810" y="238" font-size="14" fill="#475569" font-weight="600">Validated</text>
<text x="1236" y="298" font-size="12" fill="#cbd5e1" text-anchor="end" font-family="'DejaVu Sans Mono','Consolas',monospace">wazuh-soc-enterprise</text>
</svg>